<svg width="150" height="104" fill="none" xmlns="http://www.w3.org/2000/svg">
  <path
    d="M31.544 69.217a2.344 2.344 0 103.861 2.66l.044-.067A44.001 44.001 0 0172.17 52.063a2.343 2.343 0 100-4.687 48.684 48.684 0 00-40.626 21.84z"
    fill="#C4C4C4"/>
  <path
    d="M147.656 98.939h-14.062v-2.83a55.292 55.292 0 00-17.124-40.205 2.343 2.343 0 10-3.246 3.378 50.665 50.665 0 0115.685 36.826v2.83H21.094v-2.83c.032-28.195 22.88-51.044 51.076-51.076h5.663c4.353-.003 8.69.548 12.905 1.64a2.345 2.345 0 101.172-4.534 55.78 55.78 0 00-9.876-1.62v-7.205a2.343 2.343 0 00-2.344-2.343h-9.375a2.343 2.343 0 00-2.343 2.343v7.205c-29.066 2.226-51.525 26.44-51.563 55.588v2.83H2.344a2.343 2.343 0 100 4.687h145.312a2.343 2.343 0 100-4.684zm-75-63.282h4.688v4.688h-4.688v-4.688z"
    fill="#C4C4C4"/>
  <path
    d="M99.22 42.454a12.823 12.823 0 00-5.47 10.11 2.343 2.343 0 104.688 0c0-3.137 1.722-4.675 3.905-6.624a12.824 12.824 0 005.469-10.122 12.819 12.819 0 00-5.469-10.119c-2.183-1.948-3.906-3.486-3.906-6.62 0-3.136 1.723-4.67 3.906-6.619a12.818 12.818 0 005.469-10.116 2.342 2.342 0 10-4.687 0c0 3.135-1.723 4.67-3.905 6.615a12.819 12.819 0 00-5.47 10.12 12.823 12.823 0 005.47 10.118c2.182 1.948 3.905 3.487 3.905 6.624 0 3.138-1.723 4.673-3.905 6.633z"
    fill="#C4C4C4"/>
  <path
    d="M113.282 29.197c2.183 1.948 3.905 3.487 3.905 6.624 0 3.138-1.722 4.688-3.905 6.627a12.827 12.827 0 00-5.47 10.12 2.343 2.343 0 104.688 0c0-3.138 1.723-4.676 3.905-6.625a12.823 12.823 0 005.47-10.122 12.817 12.817 0 00-5.47-10.119c-2.182-1.948-3.905-3.486-3.905-6.62 0-3.136 1.723-4.67 3.905-6.62a12.826 12.826 0 005.47-10.118 2.343 2.343 0 10-4.688 0c0 3.135-1.722 4.67-3.905 6.615a12.823 12.823 0 00-5.47 10.12 12.827 12.827 0 005.47 10.118z"
    fill="#C4C4C4"/>
  <path
    d="M127.345 29.197c2.182 1.948 3.905 3.487 3.905 6.624 0 3.138-1.723 4.688-3.905 6.627a12.822 12.822 0 00-5.47 10.12 2.343 2.343 0 104.687 0c0-3.138 1.723-4.676 3.906-6.625a12.825 12.825 0 005.469-10.122 12.819 12.819 0 00-5.469-10.119c-2.183-1.948-3.906-3.486-3.906-6.62 0-3.136 1.723-4.67 3.906-6.62a12.828 12.828 0 005.469-10.118 2.342 2.342 0 10-4.687 0c0 3.135-1.723 4.67-3.905 6.615a12.817 12.817 0 00-5.47 10.12 12.822 12.822 0 005.47 10.118z"
    fill="#C4C4C4"/>
</svg>
