<svg width="158" height="44" fill="none" xmlns="http://www.w3.org/2000/svg"><path d="M20.49 1.227H.26v20.51h20.23V1.227z" fill="#6B4C9F"/><path d="M20.231 1.49v19.983H.52V1.49H20.23zm.52-.527H0V22h20.752V.963h-.001z" fill="#fff"/><path d="M41.24 1.227H21.012v20.51h20.23V1.227z" fill="#F58220"/><path d="M40.981 1.49v19.983h-19.71V1.49h19.71zm.52-.527h-20.75V22h20.75V.963z" fill="#fff"/><path d="M20.49 22.265H.26v20.51h20.23v-20.51z" fill="#9CCB3B"/><path d="M20.231 22.528V42.51H.52V22.528H20.23zm.52-.527H0v21.037h20.752V22h-.001z" fill="#fff"/><path d="M41.24 22.265H21.012v20.51h20.23v-20.51z" fill="#E31E36"/><path d="M40.981 22.528V42.51h-19.71V22.528h19.71zm.52-.527h-20.75v21.037h20.75V22zM6.538 27.536h6.624v1.155h-5.47v3.665h5.423v1.147H7.693V38.1h5.422v1.155H6.538v-11.72z" fill="#fff"/><path d="M24.548 39.255l1.642-11.72h.189l4.7 9.617 4.652-9.616h.188l1.658 11.72h-1.14l-1.13-8.382-4.087 8.381h-.291l-4.141-8.445-1.124 8.445h-1.116zM5.65 6.015h1.257l3.827 9.058 3.898-9.058h1.257l-5.03 11.719h-.25l-4.96-11.72zM27.414 15.55l.983-.597c.691 1.291 1.49 1.936 2.397 1.936.387 0 .751-.09 1.092-.27.34-.186.6-.433.778-.741.178-.309.267-.635.267-.98 0-.393-.131-.778-.393-1.156-.361-.52-1.021-1.147-1.98-1.88-.964-.738-1.564-1.272-1.8-1.601-.409-.552-.613-1.15-.613-1.793 0-.51.12-.974.362-1.394.24-.42.579-.749 1.013-.988.44-.244.917-.366 1.43-.366.546 0 1.054.138 1.525.414.477.27.98.773 1.51 1.506l-.944.725c-.435-.584-.807-.97-1.116-1.155a1.876 1.876 0 00-.998-.28c-.466 0-.849.144-1.147.43-.294.288-.44.64-.44 1.06 0 .255.052.502.157.741.105.24.296.5.573.781.152.149.65.54 1.494 1.171 1 .75 1.687 1.416 2.059 2 .372.584.558 1.171.558 1.76 0 .85-.32 1.589-.96 2.216-.633.626-1.406.94-2.317.94a3.39 3.39 0 01-1.91-.566c-.571-.382-1.098-1.02-1.58-1.912z" fill="#fff"/><path d="M49.962 1.564H73.03v3.995H53.985v14.89h18.882v3.996H53.985v13.934h18.882v3.995H49.962V1.563zM83.008 42.373V1.565h8.347c6.02 0 10.389.49 13.107 1.47 3.905 1.388 6.956 3.792 9.155 7.212 2.197 3.423 3.296 7.5 3.296 12.236 0 4.087-.869 7.685-2.612 10.791-1.742 3.108-4.006 5.4-6.786 6.881-2.784 1.48-6.682 2.22-11.7 2.22H83.007zm3.858-3.855h4.653c5.564 0 9.422-.351 11.575-1.053 3.029-.998 5.411-2.795 7.143-5.392 1.734-2.597 2.599-5.77 2.599-9.521 0-3.937-.938-7.3-2.818-10.09-1.88-2.791-4.499-4.703-7.855-5.739-2.517-.775-6.667-1.163-12.451-1.163h-2.846v32.958zM139.008 1.564l18.773 40.81h-4.344l-6.331-13.428h-17.342l-6.272 13.427h-4.488l19.019-40.809h.985zm-.507 8.67l-6.898 14.772h13.763l-6.865-14.771z" fill="#9CCB3B"/></svg>